<svg height="48" viewBox="0 0 48 48" width="48" xmlns="http://www.w3.org/2000/svg"><path d="m0 0h48v48h-48z" fill="none"/><g fill="#231f20"><path d="m45.9 24c0-2.8-3-5.4-8-7.2l-.9-.3v-.4c1.1-5.5.3-9.6-2.2-11.1s-6.2-.1-10.2 3.4l-.6.6-.2-.2h-.2c-4.1-3.8-8.1-5.1-10.6-3.7s-3.2 5.3-2.2 10.4a4.4 4.4 0 0 1 .2 1l-1.1.4c-4.9 1.7-7.8 4.3-7.8 7.1s3.2 5.6 8.2 7.4l.7.2a3.6 3.6 0 0 0 -.2 1.1c-1 5-.1 8.8 2.2 10.2s6.5.1 10.5-3.4l.6-.5.8.8c2.8 2.4 5.6 3.7 7.8 3.7a4 4 0 0 0 2.2-.6c2.5-1.4 3.4-5.5 2.3-10.7v-.2a4.3 4.3 0 0 1 -.1-.5h.3c5.3-1.9 8.5-4.6 8.5-7.5zm-2.9 0c0 1.2-2.2 3.3-6.5 4.7h-.2a36.7 36.7 0 0 0 -1.9-4.7c.7-1.6 1.3-3.2 1.8-4.7l.8.2c4 1.4 6 3.3 6 4.5zm-16.2 13.6-.8-.6a43.1 43.1 0 0 0 3.2-4l5.1-.8c.1.2.1.4.2.5a17.5 17.5 0 0 1 .2 5.5 4.1 4.1 0 0 1 -1.2 2.3c-1 .6-3.7-.2-6.7-2.9zm-1.3-4.4-1.4 1.8-1.6-1.8zm-13.7-14a31.9 31.9 0 0 0 1.9 4.8 33 33 0 0 0 -1.9 4.9l-.6-.2a14.4 14.4 0 0 1 -4.8-2.6 3.1 3.1 0 0 1 -1.4-2.1c0-1.2 2-3.1 5.8-4.4zm10.7-4.4 1.5-1.7 1.5 1.7zm11-7.3c1.1.6 1.7 3.6.8 8a.4.4 0 0 1 -.1.3l-5-.8a43.1 43.1 0 0 0 -3.2-4l.6-.5c3.2-2.8 5.8-3.6 6.9-3zm-16.7 10.6-.8 1.3-.7 1.3c-.3-.7-.5-1.4-.8-2.2zm-2.3 11.4c.3-.7.5-1.4.8-2.2l.7 1.3.8 1.3zm16.7-5.5a33.7 33.7 0 0 1 -1.7 3.2c-.6 1.1-1.3 2.1-1.9 3.1h-7.2c-.7-1.1-1.4-2.1-1.9-3.1a31 31 0 0 1 -1.7-3.2 24 24 0 0 1 1.7-3.2 30.5 30.5 0 0 1 1.9-3 43.3 43.3 0 0 1 7.2 0c.7 1 1.3 2 1.9 3a24 24 0 0 1 1.7 3.2zm.8-4.6-.8-1.3 2.3.5a18 18 0 0 1 -.8 2.1zm-.8 10.5.8-1.3.7-1.4.9 2.3zm-9.3-19h.1l-3.2 4-5 .8c-.1-.3-.1-.5-.2-.8-.8-4.1-.2-6.9.8-7.4a1.3 1.3 0 0 1 .9-.2c1.4 0 3.8 1 6.5 3.4zm-8.3 22.3a2.9 2.9 0 0 1 .2-.9l5.1.7a33 33 0 0 0 3.2 4l-.2.2-.2.2a14.3 14.3 0 0 1 -4.7 2.9 3.2 3.2 0 0 1 -2.5.2c-1.1-.6-1.7-3.3-.9-7.3z"/><path d="m24 19.6a4.4 4.4 0 1 0 4.3 4.4 4.4 4.4 0 0 0 -4.3-4.4z"/></g></svg>